# AST/ASF file generated using VICON BodyLanguage
# -----------------------------------------------
:version 1.10
:name VICON
:units
  mass 1.0
  length 0.45
  angle deg
:documentation
   .ast/.asf automatically generated from VICON data using
   VICON BodyBuilder and BodyLanguage model FoxedUp or BRILLIANT.MOD
:root
   order TX TY TZ RX RY RZ
   axis XYZ
   position 0 0 0  
   orientation 0 0 0 
:bonedata
  begin
     id 1 
     name lhipjoint
     direction 0.645422 -0.672597 0.361999 
     length 2.39934 
     axis 0 0 0  XYZ
  end
  begin
     id 2 
     name lfemur
     direction 0.34202 -0.939693 0  
     length 6.58112  
     axis 0 0 20  XYZ
    dof rx ry rz
    limits (-160.0 20.0)
           (-70.0 70.0)
           (-60.0 70.0)
  end
  begin
     id 3 
     name ltibia
     direction 0.34202 -0.939693 0   
     length 7.02673   
     axis 0 0 20   XYZ
    dof rx
    limits (-10.0 170.0)
  end
  begin
     id 4 
     name lfoot
     direction 0.0835106 -0.229444 0.969733   
     length 2.08772   
     axis -90 7.62852e-016 20   XYZ
    dof rx rz
    limits (-45.0 90.0)
           (-70.0 20.0)
  end
  begin
     id 5 
     name ltoes
     direction 1.5358e-011 -4.21925e-011 1   
     length 1.04844   
     axis -90 7.62852e-016 20   XYZ
    dof rx
    limits (-90.0 20.0)
  end
  begin
     id 6 
     name rhipjoint
     direction -0.644959 -0.672941 0.362185   
     length 2.39812  
     axis 0 0 0  XYZ 
  end
  begin
     id 7 
     name rfemur
     direction -0.34202 -0.939693 0   
     length 6.67015   
     axis 0 0 -20   XYZ
    dof rx ry rz
    limits (-160.0 20.0)
           (-70.0 70.0)
           (-70.0 60.0)
  end
  begin
     id 8 
     name rtibia
     direction -0.34202 -0.939693 0   
     length 7.35735   
     axis 0 0 -20   XYZ
    dof rx
    limits (-10.0 170.0)
 end
 begin
     id 9 
     name rfoot
     direction -0.0670769 -0.184292 0.98058   
     length 2.25469  
     axis -90 -7.62852e-016 -20   XYZ
    dof rx rz
    limits (-45.0 90.0)
           (-20.0 70.0)
  end
  begin
     id 10 
     name rtoes
     direction -1.53575e-011 -4.21908e-011 1   
     length 1.13399   
     axis -90 -7.62852e-016 -20   XYZ
    dof rx
    limits (-90.0 20.0)
  end
  begin
     id 11 
     name lowerback
     direction -0.0188328 0.993434 -0.112847   
     length 2.27656   
     axis 0 0 0   XYZ
    dof rx ry rz
    limits (-20.0 45.0)
           (-30.0 30.0)
           (-30.0 30.0)
  end
  begin
     id 12 
     name upperback
     direction 0.00983139 0.998968 -0.04435   
     length 2.28631   
     axis 0 0 0   XYZ
    dof rx ry rz
    limits (-20.0 45.0)
           (-30.0 30.0)
           (-30.0 30.0)
  end
  begin
     id 13 
     name thorax
     direction 0.0177718 0.999807 0.00833073   
     length 2.30999   
     axis 0 0 0   XYZ
    dof rx ry rz
    limits (-20.0 45.0)
           (-30.0 30.0)
           (-30.0 30.0)
  end
  begin
     id 14 
     name lowerneck
     direction -0.0835025 0.993181 0.0813558   
     length 1.39447   
     axis 0 0 0   XYZ
    dof rx ry rz
    limits (-20.0 45.0)
           (-30.0 30.0)
           (-30.0 30.0)
  end
  begin
     id 15 
     name upperneck
     direction 0.210059 0.976535 0.0474817   
     length 1.39882   
     axis 0 0 0   XYZ
    dof rx ry rz
    limits (-20.0 45.0)
           (-30.0 30.0)
           (-30.0 30.0)
  end
  begin
     id 16
     name head
     direction 0.0780891 0.996944 -0.00207154  
     length 1.41828  
     axis 0 0 0   XYZ
    dof rx ry rz
    limits (-20.0 45.0)
           (-30.0 30.0)
           (-30.0 30.0)
  end
  begin
     id 17 
     name lclavicle
     direction 0.982414 0.166355 -0.0847829  
     length 3.57922  
     axis 0 0 0   XYZ
    dof ry rz
    limits (-20.0 10.0)
           (0.0 20.0)
  end
  begin
     id 18 
     name lhumerus
     direction 1 -4.48975e-011 5.47647e-028   
     length 4.76405   
     axis -180 -30 -90   XYZ
    dof rx ry rz
    limits (-60.0 90.0)
           (-90.0 90.0)
           (-90.0 90.0)
  end
  begin
     id 19
     name lradius
     direction 1 -4.48949e-011 -8.32142e-027   
     length 3.13759   
     axis -180 -30 -90   XYZ
    dof rx
    limits (-10.0 170.0)
  end
  begin
     id 20
     name lwrist
     direction 1 -4.48978e-011 -1.32705e-026   
     length 1.56879   
     axis 9.60836e-015 90 90   XYZ
    dof ry
    limits (-180.0 0.0)
 end
  begin
     id 21 
     name lhand
     direction 1 -4.48975e-011 -2.65409e-026   
     length 0.732262   
     axis 1.69354e-014 90 90   XYZ
    dof rx rz
    limits (-90.0 90.0)
           (-45.0 45.0)
  end
  begin
     id 22 
     name lfingers
     direction 1 -4.48923e-011 -5.30819e-026   
     length 0.590368   
     axis 3.38708e-014 90 90   XYZ
    dof rx
    limits (0.0 90.0)
  end
  begin
     id 23
     name lthumb
     direction 0.707107 -6.34914e-011 0.707107   
     length 0.847654   
     axis -90 45 2.85299e-015   XYZ
    dof rx rz
    limits (-45.0 45.0)
           (-45.0 45.0)
  end
  begin
     id 24 
     name rclavicle
     direction -0.963658 0.245183 -0.106063   
     length 3.43472  
     axis 0 0 0   XYZ 
    dof ry rz
    limits (-10.0 20.0)
           (-20.0 0.0)
  end
  begin
     id 25 
     name rhumerus
     direction -1 -4.48963e-011 -1.64784e-027  
     length 5.10161   
     axis -180 30 90   XYZ
    dof rx ry rz
    limits (-90.0 60.0)
           (-90.0 90.0)
           (-90.0 90.0)
  end
  begin
     id 26 
     name rradius
     direction -1 -4.48969e-011 -2.87943e-027   
     length 3.23267   
     axis -180 30 90   XYZ
    dof rx
    limits (-10.0 170.0)
  end
  begin
     id 27 
     name rwrist
     direction -1 -4.48982e-011 -1.32705e-026   
     length 1.61633   
     axis 9.60836e-015 -90 -90   XYZ
    dof ry
    limits (-180.0 0.0)
  end
  begin
     id 28
     name rhand
     direction -1 -4.48963e-011 -2.65409e-026   
     length 0.702   
     axis 1.69354e-014 -90 -90   XYZ
    dof rx rz
    limits (-90.0 90.0)
           (-45.0 45.0)
  end
  begin
     id 29
     name rfingers
     direction -1 -4.48934e-011 -5.30819e-026   
     length 0.565971   
     axis 3.38708e-014 -90 -90   XYZ
    dof rx
    limits (0.0 90.0)
  end
  begin
     id 30
     name rthumb
     direction -0.707107 -6.34908e-011 0.707107   
     length 0.812624   
     axis -90 -45 -2.85299e-015   XYZ
    dof rx rz
    limits (-45.0 45.0)
           (-45.0 45.0)
  end
:hierarchy
  begin
    root lhipjoint rhipjoint lowerback
    lhipjoint lfemur
    lfemur ltibia
    ltibia lfoot
    lfoot ltoes
    rhipjoint rfemur
    rfemur rtibia
    rtibia rfoot
    rfoot rtoes
    lowerback upperback
    upperback thorax
    thorax lowerneck lclavicle rclavicle
    lowerneck upperneck
    upperneck head
    lclavicle lhumerus
    lhumerus lradius
    lradius lwrist
    lwrist lhand lthumb
    lhand lfingers
    rclavicle rhumerus
    rhumerus rradius
    rradius rwrist
    rwrist rhand rthumb
    rhand rfingers
  end

#!OML:ASF \\sashay\E\basketball\basketball\Project 1\Capture day 1\Session 1\Subject.ASF
:FULLY-SPECIFIED
:DEGREES
99
root -5.93879 14.4223 -7.62858 -0.797656 117.949 -27.0296
lowerback 21.3654 -0.362339 -8.67595
upperback 10.0775 -0.967397 -1.79032
thorax -0.702818 -0.24772 3.19262
lowerneck 0.930259 -10.4047 -15.9346
upperneck -25.8288 -10.2788 24.5299
head -5.21271 -5.18515 11.2543
rclavicle 2.94201e-014 2.78299e-015
rhumerus -24.9697 -13.8429 -74.1261
rradius 58.3417
rwrist -6.46431
rhand -38.6843 37.6491
rfingers 7.12502
rthumb -11.6992 7.99574
lclavicle 2.94201e-014 2.78299e-015
lhumerus -27.2026 31.5847 57.5367
lradius 89.7262
lwrist 72.7156
lhand 17.6116 40.397
lfingers 7.12502
lthumb 42.3039 64.8844
rfemur -75.31 -9.61645 35.1987
rtibia 62.9203
rfoot -18.2725 -2.49904
rtoes -43.076
lfemur 7.90651 -1.44018 -23.5497
ltibia 31.7115
lfoot 6.64805 -1.11494
ltoes -46.5936
100
root -5.47468 14.3958 -7.9174 -2.17621 118.047 -28.4004
lowerback 21.0268 -0.486419 -8.26617
upperback 10.1394 -1.01727 -2.09203
thorax -0.48741 -0.256734 2.64567
lowerneck 1.18796 -10.4678 -15.7004
upperneck -26.4295 -10.2884 24.4922
head -5.46034 -5.20444 11.2728
rclavicle 5.56597e-015 -9.93923e-015
rhumerus -25.916 -14.1871 -73.67
rradius 59.2769
rwrist -8.18891
rhand -38.5271 37.6252
rfingers 7.12502
rthumb -11.5476 7.9633
lclavicle 5.56597e-015 -9.93923e-015
lhumerus -32.661 33.622 54.2738
lradius 93.1562
lwrist 75.6083
lhand 19.5779 40.8963
lfingers 7.12502
lthumb 44.1417 64.7262
rfemur -74.3814 -9.88881 35.8053
rtibia 59.628
rfoot -17.0085 -0.888716
rtoes -41.3504
lfemur 8.63189 -2.54164 -24.3447
ltibia 34.2131
lfoot 6.03397 2.52755
ltoes -45.5601
101
root -5.00458 14.3722 -8.19829 -3.94208 118.203 -30.0546
lowerback 20.5979 -0.281341 -8.87105
upperback 10.3152 -0.787887 -1.65325
thorax -0.0643173 -0.197614 3.40416
lowerneck 1.33458 -10.6522 -16.3784
upperneck -26.6954 -10.6343 24.4498
head -5.45184 -5.32049 11.3858
rclavicle 6.36111e-014 -5.20816e-014
rhumerus -26.764 -13.8779 -72.0137
rradius 60.3007
rwrist -9.52409
rhand -38.7321 37.8329
rfingers 7.12502
rthumb -11.7453 8.18221
lclavicle 6.36111e-014 -5.20816e-014
lhumerus -38.2533 35.9061 51.8837
lradius 96.4982
lwrist 77.7493
lhand 20.0272 41.6627
lfingers 7.12502
lthumb 44.5604 65.3334
rfemur -73.2334 -10.2192 36.0191
rtibia 57.0184
rfoot -15.612 1.06621
rtoes -39.3522
lfemur 8.94137 -3.09766 -25.056
ltibia 37.5693
lfoot 5.66301 4.38598
ltoes -43.5656
102
root -4.52587 14.3476 -8.46342 -5.93835 118.511 -31.6675
lowerback 20.5048 0.0184684 -9.20215
upperback 10.4777 -0.411964 -1.5803
thorax 0.133544 -0.0287007 3.59359
lowerneck 1.58703 -11.0178 -16.4393
upperneck -26.7292 -11.1994 24.6243
head -5.36168 -5.63638 11.4378
rclavicle -4.53229e-014 4.21423e-014
rhumerus -28.0231 -14.2979 -70.8213
rradius 61.2812
rwrist -10.3939
rhand -38.9634 37.711
rfingers 7.12502
rthumb -11.9683 8.07311
lclavicle -4.53229e-014 4.21423e-014
lhumerus -43.1423 37.2851 49.0287
lradius 99.3632
lwrist 79.2794
lhand 19.8986 42.1697
lfingers 7.12502
lthumb 44.4406 65.8863
rfemur -71.5812 -10.6765 36.0324
rtibia 55.5362
rfoot -14.2354 2.35613
rtoes -34.2756
lfemur 9.04778 -3.32919 -25.56
ltibia 41.603
lfoot 5.30239 4.97511
ltoes -42.2759
103
root -4.03995 14.3459 -8.70608 -7.77735 118.827 -32.9973
lowerback 20.5756 0.497936 -9.4119
upperback 10.6005 0.194254 -1.59328
thorax 0.166441 0.269588 3.57835
lowerneck 2.05172 -11.4129 -16.7056
upperneck -26.6243 -11.844 25.0588
head -5.20351 -6.01423 11.6118
rclavicle 4.6118e-014 -1.90833e-014
rhumerus -29.7085 -15.2645 -69.7636
rradius 62.3059
rwrist -10.9723
rhand -39.1431 37.6834
rfingers 7.12502
rthumb -12.1416 8.05568
lclavicle 4.6118e-014 -1.90833e-014
lhumerus -47.2856 38.1304 46.2137
lradius 101.676
lwrist 79.7692
lhand 20.4263 42.2118
lfingers 7.12502
lthumb 44.932 65.738
rfemur -69.5278 -11.1883 36.1743
rtibia 55.3938
rfoot -11.0295 1.97712
rtoes 13.3946
lfemur 8.71731 -3.22672 -25.7173
ltibia 46.227
lfoot 5.1378 5.01092
ltoes -42.0537
104
root -3.5523 14.3325 -8.93384 -8.92006 119.242 -33.6295
lowerback 20.5486 1.12477 -9.2405
upperback 10.6328 1.04042 -1.61909
thorax 0.105513 0.700561 3.28532
lowerneck 2.90828 -11.703 -16.7671
upperneck -26.4555 -12.4127 25.3774
head -5.13876 -6.39027 11.7435
rclavicle 2.8625e-014 1.98785e-014
rhumerus -32.0243 -16.7979 -68.6784
rradius 63.185
rwrist -11.2325
rhand -39.3297 38.5736
rfingers 7.12502
rthumb -12.3216 8.95666
lclavicle 2.8625e-014 1.98785e-014
lhumerus -50.4894 38.2412 43.608
lradius 103.586
lwrist 79.757
lhand 21.0748 42.3518
lfingers 7.12502
lthumb 45.535 65.6375
rfemur -67.0193 -11.4158 36.0442
rtibia 56.3888
rfoot -13.6158 -4.31162
rtoes 23.1997
lfemur 7.76596 -2.86613 -25.2354
ltibia 51.4218
lfoot 4.09419 3.92391
ltoes -42.9399
105
root -3.0777 14.2946 -9.15524 -9.63617 119.519 -34.0316
lowerback 20.5271 1.72373 -8.6202
upperback 10.4431 1.87698 -1.95767
thorax -0.188035 1.15646 2.40025
lowerneck 3.84434 -11.896 -16.2457
upperneck -26.0367 -12.818 25.6199
head -5.10478 -6.7413 11.7525
rclavicle -4.77083e-014 -7.31528e-014
rhumerus -34.424 -18.5192 -67.9941
rradius 63.616
rwrist -11.276
rhand -39.5709 39.8563
rfingers 7.12502
rthumb -12.5541 10.2535
lclavicle -4.77083e-014 -7.31528e-014
lhumerus -53.0171 37.7939 40.5538
lradius 105.1
lwrist 79.9083
lhand 21.2601 42.7428
lfingers 7.12502
lthumb 45.7071 65.9584
rfemur -64.827 -11.0156 35.5557
rtibia 57.8456
rfoot -15.7616 -12.391
rtoes -2.61062
lfemur 6.01265 -2.00614 -24.3312
ltibia 57.1261
lfoot 4.18026 3.64522
ltoes -42.1093
106
root -2.60671 14.274 -9.36418 -9.94208 119.822 -34.2221
lowerback 20.331 2.28158 -8.31776
upperback 10.2835 2.62389 -1.88285
thorax -0.34294 1.52956 2.15715
lowerneck 4.54764 -12.1794 -16.5048
upperneck -25.6224 -13.3832 26.0909
head -4.90412 -7.11066 11.9343
rclavicle -4.13472e-014 -4.6118e-014
rhumerus -35.9845 -19.7683 -66.9852
rradius 63.6231
rwrist -11.3685
rhand -39.8117 40.9776
rfingers 7.12502
rthumb -12.7863 11.3892
lclavicle -4.13472e-014 -4.6118e-014
lhumerus -55.3624 37.7948 37.982
lradius 106.228
lwrist 79.822
lhand 20.9114 42.6638
lfingers 7.12502
lthumb 45.3831 66.0108
rfemur -62.9308 -9.90098 33.9092
rtibia 59.4378
rfoot -19.122 -11.4923
rtoes 15.2065
lfemur 3.52274 -0.910161 -23.0797
ltibia 63.1109
lfoot 4.10318 3.36516
ltoes -41.3266
107
root -2.1484 14.2527 -9.56428 -9.38643 119.866 -33.144
lowerback 20.4434 2.8671 -7.44069
upperback 10.3092 3.51366 -1.6079
thorax -0.449465 1.99046 1.76636
lowerneck 5.11963 -12.6985 -16.9491
upperneck -25.829 -14.1601 26.7895
head -4.76783 -7.56336 12.2457
rclavicle 6.36111e-015 -7.63333e-014
rhumerus -37.0109 -21.2329 -66.1368
rradius 63.3474
rwrist -11.6543
rhand -39.9491 41.6657
rfingers 7.12502
rthumb -12.9187 12.0856
lclavicle 6.36111e-015 -7.63333e-014
lhumerus -56.9496 38.1219 35.8645
lradius 106.9
lwrist 79.5553
lhand 20.7759 42.3416
lfingers 7.12502
lthumb 45.2572 65.7391
rfemur -60.6863 -8.83484 33.1481
rtibia 60.8048
rfoot -21.2139 -14.6005
rtoes 7.89802
lfemur 0.995992 0.37481 -21.0224
ltibia 69.1826
lfoot 3.52195 3.2951
ltoes -40.8607
108
root -1.71002 14.2431 -9.76716 -7.27641 119.506 -30.5099
lowerback 20.5015 3.37104 -5.56411
upperback 10.3206 4.46604 -1.26372
thorax -0.4843 2.50763 0.877268
lowerneck 5.66925 -13.2847 -17.1946
upperneck -26.4222 -14.9498 27.4367
head -4.75445 -8.02285 12.5354
rclavicle -9.54166e-015 -6.04305e-014
rhumerus -37.6005 -22.7694 -65.5189
rradius 62.8356
rwrist -12.1167
rhand -40.0105 41.537
rfingers 7.12502
rthumb -12.9779 11.9606
lclavicle -9.54166e-015 -6.04305e-014
lhumerus -58.111 38.768 33.917
lradius 107.249
lwrist 79.352
lhand 20.4091 42.1268
lfingers 7.12502
lthumb 44.916 65.6593
rfemur -58.565 -7.84203 33.5964
rtibia 61.9027
rfoot -22.1154 -16.7017
rtoes 4.14793
lfemur -2.02126 1.7375 -18.1869
ltibia 75.1838
lfoot 2.74349 3.21894
ltoes -39.179
109
root -1.28745 14.2374 -9.97697 -4.90204 119.022 -27.4283
lowerback 20.7857 3.7817 -3.49435
upperback 10.3533 5.3386 -0.896379
thorax -0.531557 2.997 -0.0917705
lowerneck 6.34647 -13.6716 -17.4174
upperneck -27.0135 -15.4921 27.9594
head -4.83309 -8.35804 12.8201
rclavicle 8.74653e-014 1.145e-013
rhumerus -37.7051 -23.9955 -65.0908
rradius 62.0465
rwrist -12.637
rhand -40.1479 41.1285
rfingers 7.12502
rthumb -13.1103 11.5606
lclavicle 8.74653e-014 1.145e-013
lhumerus -59.2575 39.6011 32.0425
lradius 107.61
lwrist 79.4046
lhand 18.5082 41.7782
lfingers 7.12502
lthumb 43.1429 65.9735
rfemur -56.2174 -7.24752 34.5382
rtibia 62.6466
rfoot -23.2143 -17.5343
rtoes 2.35518
lfemur -5.12466 2.96724 -15.3661
ltibia 80.9196
lfoot 1.91736 2.87921
ltoes -37.3702
110
root -0.868912 14.2394 -10.1857 -2.95436 118.636 -24.7315
lowerback 21.1871 4.14091 -1.6657
upperback 10.4226 6.12855 -0.636157
thorax -0.540776 3.44764 -1.02854
lowerneck 7.09336 -13.7578 -17.6899
upperneck -27.6196 -15.6668 28.1659
head -5.05203 -8.47058 13.0624
rclavicle -4.77083e-015 -8.42847e-014
rhumerus -37.5301 -25.0472 -64.9411
rradius 61.1209
rwrist -13.5051
rhand -40.1203 40.7396
rfingers 7.12502
rthumb -13.0837 11.17
lclavicle -4.77083e-015 -8.42847e-014
lhumerus -60.1219 40.4282 30.4802
lradius 108.087
lwrist 79.6478
lhand 17.2878 41.3721
lfingers 7.12502
lthumb 42.0006 65.9619
rfemur -53.571 -6.97668 35.3594
rtibia 62.8754
rfoot -24.5044 -17.9326
rtoes -0.319681
lfemur -8.37152 3.88619 -13.0877
ltibia 86.1517
lfoot 1.21181 2.35029
ltoes -37.3787
111
root -0.445771 14.2588 -10.3901 -1.07448 118.414 -22.307
lowerback 21.4493 4.46914 -0.0301124
upperback 10.4209 6.8502 -0.41254
thorax -0.522761 3.85579 -1.87177
lowerneck 8.11492 -13.558 -18.1045
upperneck -28.3615 -15.4974 28.2711
head -5.4473 -8.39228 13.3898
rclavicle -7.15625e-014 -5.40694e-014
rhumerus -37.2322 -25.9679 -64.9225
rradius 60.1617
rwrist -14.556
rhand -39.8629 40.0444
rfingers 7.12502
rthumb -12.8357 10.459
lclavicle -7.15625e-014 -5.40694e-014
lhumerus -60.5717 41.2408 29.5099
lradius 108.605
lwrist 79.7265
lhand 17.2145 40.8066
lfingers 7.12502
lthumb 41.9319 65.4194
rfemur -50.8561 -6.92261 36.0657
rtibia 62.5939
rfoot -25.7624 -18.0768
rtoes -1.30677
lfemur -12.0069 4.65845 -11.1503
ltibia 90.74
lfoot 0.685558 1.38904
ltoes -34.9065
